<svg width="23" height="23" viewBox="0 0 23 23" fill="none" xmlns="http://www.w3.org/2000/svg">
<path d="M2.17375 4.075H19.2895C20.8397 4.075 21.9591 5.50375 21.5339 6.9415L19.6731 13.2415C19.3862 14.209 18.4705 14.875 17.4288 14.875H7.126C6.08313 14.875 5.16625 14.2079 4.8805 13.2415L2.17375 4.075ZM2.17375 4.075L1.375 1.375M16.5625 21.625C17.0101 21.625 17.4393 21.4472 17.7557 21.1307C18.0722 20.8143 18.25 20.3851 18.25 19.9375C18.25 19.4899 18.0722 19.0607 17.7557 18.7443C17.4393 18.4278 17.0101 18.25 16.5625 18.25C16.1149 18.25 15.6857 18.4278 15.3693 18.7443C15.0528 19.0607 14.875 19.4899 14.875 19.9375C14.875 20.3851 15.0528 20.8143 15.3693 21.1307C15.6857 21.4472 16.1149 21.625 16.5625 21.625ZM7.5625 21.625C8.01005 21.625 8.43928 21.4472 8.75574 21.1307C9.07221 20.8143 9.25 20.3851 9.25 19.9375C9.25 19.4899 9.07221 19.0607 8.75574 18.7443C8.43928 18.4278 8.01005 18.25 7.5625 18.25C7.11495 18.25 6.68572 18.4278 6.36926 18.7443C6.05279 19.0607 5.875 19.4899 5.875 19.9375C5.875 20.3851 6.05279 20.8143 6.36926 21.1307C6.68572 21.4472 7.11495 21.625 7.5625 21.625Z" stroke="#410101" stroke-width="1.5" stroke-linecap="round" stroke-linejoin="round"/>
</svg>
