<svg width="20" height="22" viewBox="0 0 20 22" fill="none" xmlns="http://www.w3.org/2000/svg">
<path d="M1 9.23396L1.747 9.16996C1.72978 8.97788 1.63924 8.79981 1.49416 8.67274C1.34909 8.54566 1.16064 8.47936 0.967959 8.4876C0.775279 8.49584 0.593177 8.57798 0.459478 8.71697C0.325779 8.85596 0.250759 9.04111 0.25 9.23396H1ZM18.236 11.057L17.53 15.137L19.009 15.393L19.714 11.313L18.236 11.057ZM11.245 20.25H6.596V21.75H11.245V20.25ZM5.685 19.413L4.873 10.02L3.378 10.149L4.191 19.542L5.685 19.413ZM17.53 15.137C17.023 18.067 14.381 20.25 11.245 20.25V21.75C15.071 21.75 18.371 19.081 19.009 15.393L17.53 15.137ZM11.255 4.09997L10.592 8.14497L12.072 8.38696L12.735 4.34297L11.255 4.09997ZM5.188 9.24597L6.627 8.00596L5.647 6.86997L4.21 8.10996L5.188 9.24597ZM9.244 3.97197L9.72 2.13797L8.268 1.76197L7.792 3.59496L9.244 3.97197ZM10.438 1.77797L10.583 1.82497L11.042 0.396965L10.897 0.349965L10.438 1.77797ZM8.523 5.81597C8.83519 5.23187 9.0772 4.61291 9.244 3.97197L7.792 3.59496C7.65421 4.12125 7.45553 4.62969 7.2 5.10997L8.523 5.81597ZM10.583 1.82497C10.7255 1.86862 10.8547 1.94735 10.9588 2.05393C11.063 2.16051 11.1387 2.29152 11.179 2.43497L12.631 2.05897C12.5281 1.67026 12.3284 1.31397 12.0505 1.02334C11.7727 0.732707 11.4257 0.517211 11.042 0.396965L10.583 1.82497ZM9.72 2.13797C9.74024 2.06608 9.77572 1.9994 9.82404 1.94245C9.87235 1.88551 9.93237 1.83964 10 1.80797L9.349 0.456965C8.817 0.712965 8.417 1.18697 8.268 1.76197L9.72 2.13797ZM10 1.80797C10.137 1.74299 10.2935 1.73227 10.438 1.77797L10.897 0.349965C10.3863 0.186696 9.83242 0.224979 9.349 0.456965L10 1.80797ZM12.154 9.98396H17.334V8.48396H12.154V9.98396ZM2.719 20.406L1.747 9.16996L0.253 9.29896L1.223 20.535L2.719 20.406ZM1.75 20.513V9.23396H0.25V20.513H1.75ZM1.223 20.535C1.21995 20.4986 1.22549 20.462 1.23733 20.4276C1.24918 20.3931 1.26807 20.3614 1.2928 20.3346C1.31753 20.3078 1.34757 20.2864 1.381 20.2719C1.41443 20.2573 1.45053 20.2498 1.487 20.25V21.75C2.213 21.75 2.781 21.128 2.719 20.406L1.223 20.535ZM12.735 4.34297C12.8607 3.58275 12.8253 2.80461 12.631 2.05897L11.179 2.43597C11.3208 2.97915 11.3467 3.54611 11.255 4.09997L12.735 4.34297ZM6.596 20.25C6.36701 20.2496 6.14648 20.1634 5.97785 20.0085C5.80923 19.8536 5.70475 19.6411 5.685 19.413L4.191 19.542C4.24303 20.1441 4.51888 20.7049 4.96411 21.1137C5.40933 21.5224 5.99159 21.7495 6.596 21.75V20.25ZM6.627 8.00596C7.307 7.41996 8.039 6.72297 8.524 5.81597L7.2 5.10997C6.854 5.75897 6.303 6.30596 5.647 6.86997L6.627 8.00596ZM19.714 11.313C19.7742 10.966 19.7578 10.61 19.666 10.27C19.5741 9.92995 19.4091 9.61413 19.1823 9.34462C18.9556 9.07511 18.6727 8.85843 18.3534 8.70976C18.0341 8.56109 17.6862 8.48403 17.334 8.48396V9.98396C17.901 9.98396 18.334 10.496 18.236 11.057L19.714 11.313ZM1.487 20.25C1.633 20.25 1.75 20.368 1.75 20.513H0.25C0.25 21.195 0.803 21.75 1.487 21.75V20.25ZM10.592 8.14497C10.5547 8.37154 10.5672 8.60352 10.6285 8.8248C10.6899 9.04609 10.7986 9.25138 10.9472 9.42643C11.0958 9.60149 11.2807 9.74211 11.4891 9.83856C11.6975 9.93501 11.9244 9.98396 12.154 9.98396V8.48396C12.1418 8.48402 12.1297 8.48238 12.1187 8.47724C12.1076 8.4721 12.0978 8.46459 12.09 8.45523C12.0821 8.44587 12.0765 8.4349 12.0734 8.4231C12.0703 8.4113 12.0698 8.39896 12.072 8.38696L10.592 8.14497ZM4.873 10.02C4.8608 9.87516 4.88208 9.72953 4.937 9.595C4.99193 9.46046 5.07794 9.34085 5.188 9.24597L4.208 8.10897C3.91814 8.3591 3.69177 8.67444 3.54748 9.02907C3.4032 9.38371 3.34511 9.76752 3.378 10.149L4.873 10.02Z" fill="#560001"/>
</svg>
